# xmcd
#
# Track frame offsets: 
#        150
#        16065
#        31672
#        47937
#        65657
#        83200
#        108652
#        132269
#        150539
#        169411
#        191951
#        208428
#        224268
#        239651
#        256081
#        271949
#        284029
#        295657
#        310857
#
# Disc length: 4397 seconds
#
# Revision: 0
# Processed by: cddbd v1.5.2PL0 Copyright (c) Steve Scherf et al.
# Submitted via: ExactAudioCopy v0.99pb5
#
DISCID=27112b13
DTITLE=Various Artist - Billboard 1980
DYEAR=2000
DGENRE=Other
TTITLE0=Blondie - Call Me
TTITLE1=John Lennon - Woman
TTITLE2=Queen - Another One Bites the Dust
TTITLE3=Lipps Inc - Funkytown
TTITLE4=Air Supply - Lost In Love
TTITLE5=The Rolling Stones - Emotional Rescue
TTITLE6=Elton John - Little Jeannie
TTITLE7=The B-52's - Private Idaho
TTITLE8=Rod Stewart - Tonight I'm Yours
TTITLE9=Kool and the Gang - Celebration
TTITLE10=Cliff Richard - Dreaming
TTITLE11=AC,DC - You Shook Me All Night Long
TTITLE12=Suzi Quatro - Rock Hard
TTITLE13=Village People - Can't Stop the Music
TTITLE14=OMD - Enola Gay
TTITLE15=Devo - Whip It
TTITLE16=The Cure - Boys Don't Cry
TTITLE17=REO Speedwagon - Keep On Loving You
TTITLE18=Billy Joel - You May Be Right
EXTD=
EXTT0=
EXTT1=
EXTT2=
EXTT3=
EXTT4=
EXTT5=
EXTT6=
EXTT7=
EXTT8=
EXTT9=
EXTT10=
EXTT11=
EXTT12=
EXTT13=
EXTT14=
EXTT15=
EXTT16=
EXTT17=
EXTT18=
PLAYORDER=
